<mxfile host="65bd71144e">
    <diagram id="o7M6kcI1u6XlM2kXI7ns" name="Page-1">
        <mxGraphModel dx="1574" dy="779" grid="1" gridSize="10" guides="1" tooltips="1" connect="1" arrows="1" fold="1" page="1" pageScale="1" pageWidth="850" pageHeight="1100" math="0" shadow="0">
            <root>
                <mxCell id="0"/>
                <mxCell id="1" parent="0"/>
                <mxCell id="2" value="" style="rounded=0;whiteSpace=wrap;html=1;dashed=1;dashPattern=8 8;" vertex="1" parent="1">
                    <mxGeometry x="100" y="70" width="370" height="130" as="geometry"/>
                </mxCell>
                <mxCell id="3" value="git remote&lt;div&gt;远程仓库&lt;/div&gt;" style="text;html=1;align=center;verticalAlign=middle;whiteSpace=wrap;rounded=0;" vertex="1" parent="1">
                    <mxGeometry x="250" y="30" width="60" height="30" as="geometry"/>
                </mxCell>
                <mxCell id="18" style="edgeStyle=none;shape=connector;rounded=1;html=1;strokeColor=default;align=center;verticalAlign=middle;fontFamily=Helvetica;fontSize=11;fontColor=default;labelBackgroundColor=default;endArrow=classic;" edge="1" parent="1" source="4" target="14">
                    <mxGeometry relative="1" as="geometry"/>
                </mxCell>
                <mxCell id="4" value="origin（你的仓库）&lt;div&gt;git@zju.edu.cn:os/2025/...&lt;/div&gt;" style="rounded=0;whiteSpace=wrap;html=1;" vertex="1" parent="1">
                    <mxGeometry x="110" y="130" width="170" height="60" as="geometry"/>
                </mxCell>
                <mxCell id="17" style="edgeStyle=none;shape=connector;rounded=1;html=1;strokeColor=default;align=center;verticalAlign=middle;fontFamily=Helvetica;fontSize=11;fontColor=default;labelBackgroundColor=default;endArrow=classic;" edge="1" parent="1" source="5" target="16">
                    <mxGeometry relative="1" as="geometry"/>
                </mxCell>
                <mxCell id="37" value="&lt;span style=&quot;font-size: 12px;&quot;&gt;&lt;font style=&quot;color: rgb(108, 142, 191);&quot;&gt;⑦ git fetch upstream&lt;/font&gt;&lt;/span&gt;&lt;div&gt;&lt;span style=&quot;font-size: 12px;&quot;&gt;&lt;font style=&quot;color: rgb(108, 142, 191);&quot;&gt;同步上游&lt;/font&gt;&lt;/span&gt;&lt;/div&gt;" style="edgeStyle=none;shape=connector;rounded=1;html=1;strokeColor=#6c8ebf;align=center;verticalAlign=middle;fontFamily=Helvetica;fontSize=11;fontColor=#6C8EBF;labelBackgroundColor=none;endArrow=classic;fillColor=#dae8fc;" edge="1" parent="1" source="5" target="36">
                    <mxGeometry relative="1" as="geometry"/>
                </mxCell>
                <mxCell id="5" value="&lt;font style=&quot;color: rgb(150, 115, 166);&quot;&gt;upstream（助教仓库）&lt;br&gt;&lt;/font&gt;&lt;div&gt;&lt;font style=&quot;color: rgb(150, 115, 166);&quot;&gt;git@zju.edu.cn:os/code&lt;/font&gt;&lt;/div&gt;" style="rounded=0;whiteSpace=wrap;html=1;fillColor=#e1d5e7;strokeColor=#9673a6;" vertex="1" parent="1">
                    <mxGeometry x="300" y="130" width="160" height="60" as="geometry"/>
                </mxCell>
                <mxCell id="29" value="&lt;span style=&quot;color: rgb(184, 84, 80); font-size: 12px;&quot;&gt;⑨ git merge upstream/lab1&lt;/span&gt;&lt;div&gt;&lt;span style=&quot;color: rgb(184, 84, 80); font-size: 12px;&quot;&gt;合并上游更改&lt;/span&gt;&lt;/div&gt;" style="edgeStyle=none;shape=connector;rounded=1;html=1;strokeColor=#b85450;align=center;verticalAlign=middle;fontFamily=Helvetica;fontSize=11;fontColor=default;labelBackgroundColor=none;endArrow=classic;fillColor=#f8cecc;entryX=1;entryY=0.5;entryDx=0;entryDy=0;" edge="1" parent="1" source="38" target="44">
                    <mxGeometry relative="1" as="geometry">
                        <mxPoint x="9.999999999999773" y="480" as="targetPoint"/>
                    </mxGeometry>
                </mxCell>
                <mxCell id="6" value="lab1" style="ellipse;whiteSpace=wrap;html=1;aspect=fixed;" vertex="1" parent="1">
                    <mxGeometry x="360" y="400" width="40" height="40" as="geometry"/>
                </mxCell>
                <mxCell id="11" style="edgeStyle=none;html=1;fillColor=#ffe6cc;strokeColor=#d79b00;" edge="1" parent="1" target="10">
                    <mxGeometry relative="1" as="geometry">
                        <mxPoint x="-10" y="269.9999999999999" as="sourcePoint"/>
                    </mxGeometry>
                </mxCell>
                <mxCell id="7" value="lab0" style="ellipse;whiteSpace=wrap;html=1;aspect=fixed;fillColor=#f8cecc;strokeColor=#b85450;fontColor=#B85450;" vertex="1" parent="1">
                    <mxGeometry x="-30" y="248" width="40" height="40" as="geometry"/>
                </mxCell>
                <mxCell id="22" value="&lt;span style=&quot;color: rgb(214, 182, 86); font-size: 12px;&quot;&gt;④ git push&lt;/span&gt;&lt;div&gt;&lt;span style=&quot;color: rgb(214, 182, 86); font-size: 12px;&quot;&gt;推送作业&lt;/span&gt;&lt;/div&gt;" style="edgeStyle=none;shape=connector;rounded=1;html=1;strokeColor=#d6b656;align=center;verticalAlign=middle;fontFamily=Helvetica;fontSize=11;fontColor=default;labelBackgroundColor=none;endArrow=classic;fillColor=#fff2cc;" edge="1" parent="1" source="10" target="21">
                    <mxGeometry relative="1" as="geometry"/>
                </mxCell>
                <mxCell id="10" value="&lt;font style=&quot;color: rgb(215, 155, 0);&quot;&gt;你的&lt;/font&gt;&lt;div&gt;&lt;font color=&quot;#d79b00&quot;&gt;lab0&lt;/font&gt;&lt;/div&gt;" style="ellipse;whiteSpace=wrap;html=1;aspect=fixed;fillColor=#ffe6cc;strokeColor=#d79b00;fontColor=#FF8000;" vertex="1" parent="1">
                    <mxGeometry x="-30" y="322" width="40" height="40" as="geometry"/>
                </mxCell>
                <mxCell id="45" style="edgeStyle=none;shape=connector;rounded=1;html=1;strokeColor=#b85450;align=center;verticalAlign=middle;fontFamily=Helvetica;fontSize=11;fontColor=default;labelBackgroundColor=default;endArrow=classic;fillColor=#f8cecc;" edge="1" parent="1" source="12" target="44">
                    <mxGeometry relative="1" as="geometry"/>
                </mxCell>
                <mxCell id="12" value="lab1" style="ellipse;whiteSpace=wrap;html=1;aspect=fixed;fillColor=#d5e8d4;strokeColor=#82b366;fontColor=#82B366;" vertex="1" parent="1">
                    <mxGeometry x="-30" y="400" width="40" height="40" as="geometry"/>
                </mxCell>
                <mxCell id="30" style="edgeStyle=none;shape=connector;rounded=1;html=1;strokeColor=#b85450;align=center;verticalAlign=middle;fontFamily=Helvetica;fontSize=11;fontColor=default;labelBackgroundColor=default;endArrow=classic;fillColor=#f8cecc;" edge="1" parent="1" source="13" target="7">
                    <mxGeometry relative="1" as="geometry"/>
                </mxCell>
                <mxCell id="13" value="本地 origin" style="rounded=0;whiteSpace=wrap;html=1;fillColor=#f8cecc;strokeColor=#b85450;fontColor=#B85450;" vertex="1" parent="1">
                    <mxGeometry x="-40" y="140" width="60" height="40" as="geometry"/>
                </mxCell>
                <mxCell id="19" value="&lt;span style=&quot;font-size: 12px;&quot;&gt;&lt;font style=&quot;color: rgb(184, 84, 80);&quot;&gt;① git clone&lt;/font&gt;&lt;/span&gt;&lt;div style=&quot;scrollbar-color: rgb(226, 226, 226) rgb(251, 251, 251); font-size: 12px; color: rgb(63, 63, 63);&quot;&gt;&lt;font style=&quot;color: rgb(184, 84, 80);&quot;&gt;拉取仓库&lt;/font&gt;&lt;/div&gt;" style="edgeStyle=none;shape=connector;rounded=1;html=1;strokeColor=#b85450;align=center;verticalAlign=middle;fontFamily=Helvetica;fontSize=11;fontColor=default;labelBackgroundColor=none;endArrow=classic;fillColor=#f8cecc;" edge="1" parent="1" source="4" target="13">
                    <mxGeometry relative="1" as="geometry">
                        <mxPoint x="110" y="160" as="sourcePoint"/>
                        <mxPoint x="49.99999999998704" y="159.57999999999987" as="targetPoint"/>
                    </mxGeometry>
                </mxCell>
                <mxCell id="23" style="edgeStyle=none;shape=connector;rounded=1;html=1;strokeColor=#d6b656;align=center;verticalAlign=middle;fontFamily=Helvetica;fontSize=11;fontColor=default;labelBackgroundColor=default;endArrow=classic;fillColor=#fff2cc;" edge="1" parent="1" target="21">
                    <mxGeometry relative="1" as="geometry">
                        <mxPoint x="195" y="269.9999999999999" as="sourcePoint"/>
                    </mxGeometry>
                </mxCell>
                <mxCell id="14" value="lab0" style="ellipse;whiteSpace=wrap;html=1;aspect=fixed;" vertex="1" parent="1">
                    <mxGeometry x="175" y="248" width="40" height="40" as="geometry"/>
                </mxCell>
                <mxCell id="26" style="edgeStyle=none;shape=connector;rounded=1;html=1;strokeColor=default;align=center;verticalAlign=middle;fontFamily=Helvetica;fontSize=11;fontColor=default;labelBackgroundColor=default;endArrow=classic;" edge="1" parent="1" source="16" target="6">
                    <mxGeometry relative="1" as="geometry"/>
                </mxCell>
                <mxCell id="16" value="lab0" style="ellipse;whiteSpace=wrap;html=1;aspect=fixed;" vertex="1" parent="1">
                    <mxGeometry x="360" y="248" width="40" height="40" as="geometry"/>
                </mxCell>
                <mxCell id="20" value="&lt;font style=&quot;color: rgb(215, 155, 0);&quot;&gt;③ git commit&lt;/font&gt;&lt;div&gt;&lt;font style=&quot;color: rgb(215, 155, 0);&quot;&gt;提交作业&lt;/font&gt;&lt;/div&gt;" style="text;html=1;align=center;verticalAlign=middle;resizable=0;points=[];autosize=1;strokeColor=none;fillColor=none;fontColor=#D79B00;" vertex="1" parent="1">
                    <mxGeometry x="-100" y="287" width="90" height="40" as="geometry"/>
                </mxCell>
                <mxCell id="27" style="edgeStyle=none;shape=connector;rounded=1;html=1;strokeColor=#82b366;align=center;verticalAlign=middle;fontFamily=Helvetica;fontSize=11;fontColor=default;labelBackgroundColor=default;endArrow=classic;fillColor=#d5e8d4;" edge="1" parent="1" target="12">
                    <mxGeometry relative="1" as="geometry">
                        <mxPoint x="-10" y="362" as="sourcePoint"/>
                    </mxGeometry>
                </mxCell>
                <mxCell id="21" value="&lt;font style=&quot;color: rgb(214, 182, 86);&quot;&gt;你的&lt;/font&gt;&lt;div&gt;&lt;font color=&quot;#d6b656&quot;&gt;lab0&lt;/font&gt;&lt;/div&gt;" style="ellipse;whiteSpace=wrap;html=1;aspect=fixed;fillColor=#fff2cc;strokeColor=#d6b656;fontColor=#D6B656;" vertex="1" parent="1">
                    <mxGeometry x="175" y="322" width="40" height="40" as="geometry"/>
                </mxCell>
                <mxCell id="28" value="⑧ git checkout -b lab1" style="text;html=1;align=center;verticalAlign=middle;resizable=0;points=[];autosize=1;strokeColor=none;fillColor=none;fontColor=#82B366;" vertex="1" parent="1">
                    <mxGeometry x="-150" y="362" width="140" height="30" as="geometry"/>
                </mxCell>
                <mxCell id="31" value="" style="endArrow=classic;html=1;rounded=1;strokeColor=default;align=center;verticalAlign=middle;fontFamily=Helvetica;fontSize=11;fontColor=default;labelBackgroundColor=default;exitX=1;exitY=0;exitDx=0;exitDy=0;entryX=1;entryY=1;entryDx=0;entryDy=0;" edge="1" parent="1" source="21" target="21">
                    <mxGeometry width="50" height="50" relative="1" as="geometry">
                        <mxPoint x="260" y="360" as="sourcePoint"/>
                        <mxPoint x="260" y="360" as="targetPoint"/>
                        <Array as="points">
                            <mxPoint x="250" y="310"/>
                            <mxPoint x="250" y="370"/>
                        </Array>
                    </mxGeometry>
                </mxCell>
                <mxCell id="32" value="⑤ 助教批改、查重" style="text;html=1;align=center;verticalAlign=middle;resizable=0;points=[];autosize=1;strokeColor=none;fillColor=none;fontFamily=Helvetica;fontSize=11;fontColor=default;labelBackgroundColor=default;" vertex="1" parent="1">
                    <mxGeometry x="250" y="327" width="110" height="30" as="geometry"/>
                </mxCell>
                <mxCell id="35" value="&lt;span style=&quot;color: rgb(150, 115, 166); font-size: 12px;&quot;&gt;② git remote add upstream&lt;/span&gt;&lt;div&gt;&lt;span style=&quot;color: rgb(150, 115, 166); font-size: 12px;&quot;&gt;设置上游&lt;/span&gt;&lt;/div&gt;" style="endArrow=classic;html=1;rounded=1;strokeColor=#9673a6;align=center;verticalAlign=middle;fontFamily=Helvetica;fontSize=11;fontColor=default;labelBackgroundColor=none;exitX=0.5;exitY=0;exitDx=0;exitDy=0;entryX=0.5;entryY=0;entryDx=0;entryDy=0;fillColor=#e1d5e7;" edge="1" parent="1" source="13" target="5">
                    <mxGeometry x="0.0786" width="50" height="50" relative="1" as="geometry">
                        <mxPoint x="-110" y="190" as="sourcePoint"/>
                        <mxPoint x="-60" y="140" as="targetPoint"/>
                        <Array as="points">
                            <mxPoint x="200" y="90"/>
                        </Array>
                        <mxPoint as="offset"/>
                    </mxGeometry>
                </mxCell>
                <mxCell id="41" style="edgeStyle=none;shape=connector;rounded=1;html=1;strokeColor=#6c8ebf;align=center;verticalAlign=middle;fontFamily=Helvetica;fontSize=11;fontColor=default;labelBackgroundColor=default;endArrow=classic;fillColor=#dae8fc;" edge="1" parent="1" source="36" target="40">
                    <mxGeometry relative="1" as="geometry"/>
                </mxCell>
                <mxCell id="36" value="本地 upstream" style="rounded=0;whiteSpace=wrap;html=1;fillColor=#dae8fc;strokeColor=#6c8ebf;fontColor=#6C8EBF;" vertex="1" parent="1">
                    <mxGeometry x="590" y="140" width="60" height="40" as="geometry"/>
                </mxCell>
                <mxCell id="38" value="lab1" style="ellipse;whiteSpace=wrap;html=1;aspect=fixed;fillColor=#dae8fc;strokeColor=#6c8ebf;fontColor=#6C8EBF;" vertex="1" parent="1">
                    <mxGeometry x="600" y="400" width="40" height="40" as="geometry"/>
                </mxCell>
                <mxCell id="39" style="edgeStyle=none;shape=connector;rounded=1;html=1;strokeColor=#6c8ebf;align=center;verticalAlign=middle;fontFamily=Helvetica;fontSize=11;fontColor=default;labelBackgroundColor=default;endArrow=classic;fillColor=#dae8fc;" edge="1" source="40" target="38" parent="1">
                    <mxGeometry relative="1" as="geometry"/>
                </mxCell>
                <mxCell id="40" value="lab0" style="ellipse;whiteSpace=wrap;html=1;aspect=fixed;fillColor=#dae8fc;strokeColor=#6c8ebf;fontColor=#6C8EBF;" vertex="1" parent="1">
                    <mxGeometry x="600" y="248" width="40" height="40" as="geometry"/>
                </mxCell>
                <mxCell id="43" value="⑥ 助教发布新 Lab" style="text;html=1;align=center;verticalAlign=middle;resizable=0;points=[];autosize=1;strokeColor=none;fillColor=none;fontFamily=Helvetica;fontSize=11;fontColor=default;labelBackgroundColor=default;" vertex="1" parent="1">
                    <mxGeometry x="380" y="327" width="110" height="30" as="geometry"/>
                </mxCell>
                <mxCell id="49" style="edgeStyle=none;shape=connector;rounded=1;html=1;strokeColor=default;align=center;verticalAlign=middle;fontFamily=Helvetica;fontSize=11;fontColor=default;labelBackgroundColor=default;endArrow=classic;" edge="1" parent="1" source="44" target="48">
                    <mxGeometry relative="1" as="geometry"/>
                </mxCell>
                <mxCell id="44" value="&lt;font style=&quot;color: rgb(184, 84, 80);&quot;&gt;合并的&lt;/font&gt;&lt;div&gt;&lt;font style=&quot;color: rgb(184, 84, 80);&quot;&gt;lab1&lt;/font&gt;&lt;/div&gt;" style="ellipse;whiteSpace=wrap;html=1;aspect=fixed;fillColor=#f8cecc;strokeColor=#b85450;fontColor=#B85450;" vertex="1" parent="1">
                    <mxGeometry x="-30" y="480" width="40" height="40" as="geometry"/>
                </mxCell>
                <mxCell id="48" value="......" style="ellipse;whiteSpace=wrap;html=1;aspect=fixed;" vertex="1" parent="1">
                    <mxGeometry x="-30" y="560" width="40" height="40" as="geometry"/>
                </mxCell>
                <mxCell id="52" value="继续开发" style="text;html=1;align=center;verticalAlign=middle;whiteSpace=wrap;rounded=0;fontFamily=Helvetica;fontSize=11;fontColor=default;labelBackgroundColor=default;" vertex="1" parent="1">
                    <mxGeometry x="-74" y="524" width="60" height="30" as="geometry"/>
                </mxCell>
            </root>
        </mxGraphModel>
    </diagram>
</mxfile>